<mxfile host="65bd71144e">
    <diagram id="4_j80ZjsGTK7fmihPFIg" name="PÃ¡gina-1">
        <mxGraphModel dx="879" dy="478" grid="1" gridSize="10" guides="1" tooltips="1" connect="1" arrows="1" fold="1" page="1" pageScale="1" pageWidth="827" pageHeight="1169" math="0" shadow="0">
            <root>
                <mxCell id="0"/>
                <mxCell id="1" parent="0"/>
                <mxCell id="2" value="profesor" style="rounded=0;whiteSpace=wrap;html=1;" vertex="1" parent="1">
                    <mxGeometry x="220" y="200" width="120" height="60" as="geometry"/>
                </mxCell>
                <mxCell id="3" value="nif_prof" style="ellipse;whiteSpace=wrap;html=1;" vertex="1" parent="1">
                    <mxGeometry x="140" y="90" width="120" height="80" as="geometry"/>
                </mxCell>
                <mxCell id="4" value="" style="endArrow=none;html=1;entryX=0.958;entryY=0.75;entryDx=0;entryDy=0;entryPerimeter=0;" edge="1" parent="1" target="3">
                    <mxGeometry width="50" height="50" relative="1" as="geometry">
                        <mxPoint x="260" y="200" as="sourcePoint"/>
                        <mxPoint x="230" y="150" as="targetPoint"/>
                    </mxGeometry>
                </mxCell>
                <mxCell id="5" value="no_tel" style="ellipse;whiteSpace=wrap;html=1;" vertex="1" parent="1">
                    <mxGeometry x="310" y="90" width="120" height="80" as="geometry"/>
                </mxCell>
                <mxCell id="6" value="nome" style="ellipse;whiteSpace=wrap;html=1;" vertex="1" parent="1">
                    <mxGeometry x="390" y="230" width="120" height="80" as="geometry"/>
                </mxCell>
                <mxCell id="7" value="apelidos" style="ellipse;whiteSpace=wrap;html=1;" vertex="1" parent="1">
                    <mxGeometry x="390" y="310" width="120" height="80" as="geometry"/>
                </mxCell>
                <mxCell id="8" value="id_profesor" style="ellipse;whiteSpace=wrap;html=1;fontStyle=4" vertex="1" parent="1">
                    <mxGeometry x="260" y="320" width="120" height="80" as="geometry"/>
                </mxCell>
                <mxCell id="9" value="data_nac" style="ellipse;whiteSpace=wrap;html=1;" vertex="1" parent="1">
                    <mxGeometry x="120" y="310" width="120" height="80" as="geometry"/>
                </mxCell>
                <mxCell id="10" value="" style="endArrow=none;html=1;entryX=0;entryY=1;entryDx=0;entryDy=0;" edge="1" parent="1" target="5">
                    <mxGeometry width="50" height="50" relative="1" as="geometry">
                        <mxPoint x="290" y="200" as="sourcePoint"/>
                        <mxPoint x="164.96000000000004" y="160" as="targetPoint"/>
                    </mxGeometry>
                </mxCell>
                <mxCell id="12" value="" style="endArrow=none;html=1;exitX=0.058;exitY=1.05;exitDx=0;exitDy=0;exitPerimeter=0;" edge="1" parent="1" source="2" target="9">
                    <mxGeometry width="50" height="50" relative="1" as="geometry">
                        <mxPoint x="220" y="270" as="sourcePoint"/>
                        <mxPoint x="174.96000000000004" y="170" as="targetPoint"/>
                    </mxGeometry>
                </mxCell>
                <mxCell id="13" value="" style="endArrow=none;html=1;exitX=0.567;exitY=0.983;exitDx=0;exitDy=0;exitPerimeter=0;" edge="1" parent="1" source="2" target="8">
                    <mxGeometry width="50" height="50" relative="1" as="geometry">
                        <mxPoint x="290" y="270" as="sourcePoint"/>
                        <mxPoint x="184.96000000000004" y="180" as="targetPoint"/>
                    </mxGeometry>
                </mxCell>
                <mxCell id="14" value="" style="endArrow=none;html=1;" edge="1" parent="1" target="6">
                    <mxGeometry width="50" height="50" relative="1" as="geometry">
                        <mxPoint x="340" y="240" as="sourcePoint"/>
                        <mxPoint x="194.96000000000004" y="190" as="targetPoint"/>
                    </mxGeometry>
                </mxCell>
                <mxCell id="15" value="" style="endArrow=none;html=1;" edge="1" parent="1" target="7">
                    <mxGeometry width="50" height="50" relative="1" as="geometry">
                        <mxPoint x="310" y="260" as="sourcePoint"/>
                        <mxPoint x="204.96000000000004" y="200" as="targetPoint"/>
                    </mxGeometry>
                </mxCell>
                <mxCell id="16" value="lingua_1" style="ellipse;whiteSpace=wrap;html=1;" vertex="1" parent="1">
                    <mxGeometry x="20" y="150" width="120" height="80" as="geometry"/>
                </mxCell>
                <mxCell id="18" value="lingua_2" style="ellipse;whiteSpace=wrap;html=1;" vertex="1" parent="1">
                    <mxGeometry x="30" y="240" width="120" height="80" as="geometry"/>
                </mxCell>
                <mxCell id="25" value="" style="endArrow=none;html=1;exitX=-0.033;exitY=0.633;exitDx=0;exitDy=0;exitPerimeter=0;" edge="1" parent="1" source="2">
                    <mxGeometry width="50" height="50" relative="1" as="geometry">
                        <mxPoint x="210" y="240" as="sourcePoint"/>
                        <mxPoint x="150" y="270" as="targetPoint"/>
                    </mxGeometry>
                </mxCell>
                <mxCell id="26" value="" style="endArrow=none;html=1;exitX=0;exitY=0.25;exitDx=0;exitDy=0;" edge="1" parent="1" source="2" target="16">
                    <mxGeometry width="50" height="50" relative="1" as="geometry">
                        <mxPoint x="210" y="220" as="sourcePoint"/>
                        <mxPoint x="160" y="280" as="targetPoint"/>
                    </mxGeometry>
                </mxCell>
                <mxCell id="115" style="edgeStyle=orthogonalEdgeStyle;shape=link;html=1;entryX=0;entryY=0.5;entryDx=0;entryDy=0;" edge="1" parent="1" source="27" target="65">
                    <mxGeometry relative="1" as="geometry">
                        <mxPoint x="640" y="730" as="targetPoint"/>
                    </mxGeometry>
                </mxCell>
                <mxCell id="122" style="edgeStyle=orthogonalEdgeStyle;shape=link;curved=1;html=1;" edge="1" parent="1" source="27" target="106">
                    <mxGeometry relative="1" as="geometry">
                        <mxPoint x="300" y="1040" as="targetPoint"/>
                        <Array as="points">
                            <mxPoint x="300" y="1060"/>
                        </Array>
                    </mxGeometry>
                </mxCell>
                <mxCell id="27" value="cliente" style="rounded=0;whiteSpace=wrap;html=1;" vertex="1" parent="1">
                    <mxGeometry x="240" y="560" width="120" height="90" as="geometry"/>
                </mxCell>
                <mxCell id="29" value="nome_cliente" style="ellipse;whiteSpace=wrap;html=1;rounded=0;" vertex="1" parent="1">
                    <mxGeometry x="100" y="650" width="120" height="60" as="geometry"/>
                </mxCell>
                <mxCell id="31" value="" style="endArrow=none;html=1;exitX=1;exitY=0.5;exitDx=0;exitDy=0;" edge="1" parent="1" source="29">
                    <mxGeometry width="50" height="50" relative="1" as="geometry">
                        <mxPoint x="175" y="610" as="sourcePoint"/>
                        <mxPoint x="240" y="600" as="targetPoint"/>
                    </mxGeometry>
                </mxCell>
                <mxCell id="33" value="sector_cliente" style="ellipse;whiteSpace=wrap;html=1;rounded=0;" vertex="1" parent="1">
                    <mxGeometry x="370" y="470" width="120" height="60" as="geometry"/>
                </mxCell>
                <mxCell id="34" value="&lt;u&gt;id_cliente&lt;/u&gt;" style="ellipse;whiteSpace=wrap;html=1;rounded=0;" vertex="1" parent="1">
                    <mxGeometry x="90" y="480" width="120" height="60" as="geometry"/>
                </mxCell>
                <mxCell id="35" value="dir_cliente" style="ellipse;whiteSpace=wrap;html=1;rounded=0;" vertex="1" parent="1">
                    <mxGeometry x="390" y="650" width="120" height="60" as="geometry"/>
                </mxCell>
                <mxCell id="36" value="" style="endArrow=none;html=1;exitX=-0.008;exitY=0.4;exitDx=0;exitDy=0;exitPerimeter=0;entryX=0.9;entryY=1;entryDx=0;entryDy=0;entryPerimeter=0;" edge="1" parent="1" source="35" target="27">
                    <mxGeometry width="50" height="50" relative="1" as="geometry">
                        <mxPoint x="230" y="690" as="sourcePoint"/>
                        <mxPoint x="250" y="610" as="targetPoint"/>
                    </mxGeometry>
                </mxCell>
                <mxCell id="37" value="" style="endArrow=none;html=1;exitX=0;exitY=0;exitDx=0;exitDy=0;" edge="1" parent="1" source="27">
                    <mxGeometry width="50" height="50" relative="1" as="geometry">
                        <mxPoint x="320" y="520" as="sourcePoint"/>
                        <mxPoint x="210" y="520" as="targetPoint"/>
                    </mxGeometry>
                </mxCell>
                <mxCell id="38" value="" style="endArrow=none;html=1;exitX=1;exitY=0;exitDx=0;exitDy=0;" edge="1" parent="1" source="27">
                    <mxGeometry width="50" height="50" relative="1" as="geometry">
                        <mxPoint x="350" y="550" as="sourcePoint"/>
                        <mxPoint x="390" y="520" as="targetPoint"/>
                        <Array as="points">
                            <mxPoint x="380" y="530"/>
                        </Array>
                    </mxGeometry>
                </mxCell>
                <mxCell id="128" style="edgeStyle=orthogonalEdgeStyle;shape=link;curved=1;html=1;entryX=0.92;entryY=0.588;entryDx=0;entryDy=0;entryPerimeter=0;" edge="1" parent="1" source="39" target="76">
                    <mxGeometry relative="1" as="geometry">
                        <Array as="points">
                            <mxPoint x="800" y="137"/>
                        </Array>
                    </mxGeometry>
                </mxCell>
                <mxCell id="39" value="curso" style="rounded=0;whiteSpace=wrap;html=1;" vertex="1" parent="1">
                    <mxGeometry x="780" y="400" width="120" height="60" as="geometry"/>
                </mxCell>
                <mxCell id="40" value="data_inicio" style="ellipse;whiteSpace=wrap;html=1;" vertex="1" parent="1">
                    <mxGeometry x="940" y="220" width="120" height="80" as="geometry"/>
                </mxCell>
                <mxCell id="41" value="lingua" style="ellipse;whiteSpace=wrap;html=1;" vertex="1" parent="1">
                    <mxGeometry x="1040" y="380" width="120" height="80" as="geometry"/>
                </mxCell>
                <mxCell id="42" value="nivel" style="ellipse;whiteSpace=wrap;html=1;" vertex="1" parent="1">
                    <mxGeometry x="990" y="470" width="120" height="80" as="geometry"/>
                </mxCell>
                <mxCell id="43" value="cliente" style="ellipse;whiteSpace=wrap;html=1;" vertex="1" parent="1">
                    <mxGeometry x="640" y="250" width="120" height="80" as="geometry"/>
                </mxCell>
                <mxCell id="44" value="na_escola" style="ellipse;whiteSpace=wrap;html=1;" vertex="1" parent="1">
                    <mxGeometry x="960" y="300" width="120" height="80" as="geometry"/>
                </mxCell>
                <mxCell id="45" value="profesor" style="ellipse;whiteSpace=wrap;html=1;" vertex="1" parent="1">
                    <mxGeometry x="600" y="350" width="120" height="80" as="geometry"/>
                </mxCell>
                <mxCell id="46" value="&lt;u&gt;id_curso&lt;/u&gt;" style="ellipse;whiteSpace=wrap;html=1;" vertex="1" parent="1">
                    <mxGeometry x="700" y="520" width="120" height="80" as="geometry"/>
                </mxCell>
                <mxCell id="47" value="nome_curso" style="ellipse;whiteSpace=wrap;html=1;" vertex="1" parent="1">
                    <mxGeometry x="590" y="460" width="120" height="80" as="geometry"/>
                </mxCell>
                <mxCell id="48" value="duracion_curso" style="ellipse;whiteSpace=wrap;html=1;" vertex="1" parent="1">
                    <mxGeometry x="810" y="210" width="120" height="80" as="geometry"/>
                </mxCell>
                <mxCell id="50" value="" style="endArrow=none;html=1;entryX=0.775;entryY=0.963;entryDx=0;entryDy=0;entryPerimeter=0;exitX=0.175;exitY=-0.017;exitDx=0;exitDy=0;exitPerimeter=0;" edge="1" parent="1" source="39" target="43">
                    <mxGeometry width="50" height="50" relative="1" as="geometry">
                        <mxPoint x="800" y="390" as="sourcePoint"/>
                        <mxPoint x="680" y="260" as="targetPoint"/>
                    </mxGeometry>
                </mxCell>
                <mxCell id="52" value="" style="endArrow=none;html=1;entryX=1;entryY=0.5;entryDx=0;entryDy=0;exitX=0;exitY=0.75;exitDx=0;exitDy=0;" edge="1" parent="1" source="39" target="45">
                    <mxGeometry width="50" height="50" relative="1" as="geometry">
                        <mxPoint x="780" y="451.94" as="sourcePoint"/>
                        <mxPoint x="712" y="379.99999999999994" as="targetPoint"/>
                    </mxGeometry>
                </mxCell>
                <mxCell id="53" value="" style="endArrow=none;html=1;entryX=1;entryY=0.35;entryDx=0;entryDy=0;exitX=0;exitY=1;exitDx=0;exitDy=0;entryPerimeter=0;" edge="1" parent="1" source="39" target="47">
                    <mxGeometry width="50" height="50" relative="1" as="geometry">
                        <mxPoint x="780" y="505" as="sourcePoint"/>
                        <mxPoint x="720" y="450" as="targetPoint"/>
                    </mxGeometry>
                </mxCell>
                <mxCell id="54" value="" style="endArrow=none;html=1;entryX=0.583;entryY=-0.025;entryDx=0;entryDy=0;exitX=0.117;exitY=1.05;exitDx=0;exitDy=0;entryPerimeter=0;exitPerimeter=0;" edge="1" parent="1" source="39" target="46">
                    <mxGeometry width="50" height="50" relative="1" as="geometry">
                        <mxPoint x="790" y="470" as="sourcePoint"/>
                        <mxPoint x="720" y="498" as="targetPoint"/>
                    </mxGeometry>
                </mxCell>
                <mxCell id="55" value="" style="endArrow=none;html=1;exitX=0.833;exitY=1;exitDx=0;exitDy=0;exitPerimeter=0;" edge="1" parent="1" source="39" target="42">
                    <mxGeometry width="50" height="50" relative="1" as="geometry">
                        <mxPoint x="880" y="470" as="sourcePoint"/>
                        <mxPoint x="779.96" y="528" as="targetPoint"/>
                    </mxGeometry>
                </mxCell>
                <mxCell id="56" value="" style="endArrow=none;html=1;exitX=1;exitY=1;exitDx=0;exitDy=0;entryX=0.025;entryY=0.638;entryDx=0;entryDy=0;entryPerimeter=0;" edge="1" parent="1" source="39" target="41">
                    <mxGeometry width="50" height="50" relative="1" as="geometry">
                        <mxPoint x="889.96" y="470" as="sourcePoint"/>
                        <mxPoint x="915.8639984627098" y="541.1259957724519" as="targetPoint"/>
                        <Array as="points">
                            <mxPoint x="940" y="430"/>
                        </Array>
                    </mxGeometry>
                </mxCell>
                <mxCell id="58" value="" style="endArrow=none;html=1;entryX=0.5;entryY=1;entryDx=0;entryDy=0;exitX=0.442;exitY=0;exitDx=0;exitDy=0;exitPerimeter=0;" edge="1" parent="1" source="39" target="48">
                    <mxGeometry width="50" height="50" relative="1" as="geometry">
                        <mxPoint x="900" y="361.94" as="sourcePoint"/>
                        <mxPoint x="832" y="289.99999999999994" as="targetPoint"/>
                    </mxGeometry>
                </mxCell>
                <mxCell id="60" value="" style="endArrow=none;html=1;" edge="1" parent="1" target="40">
                    <mxGeometry width="50" height="50" relative="1" as="geometry">
                        <mxPoint x="860" y="400" as="sourcePoint"/>
                        <mxPoint x="842" y="300" as="targetPoint"/>
                    </mxGeometry>
                </mxCell>
                <mxCell id="61" value="" style="endArrow=none;html=1;exitX=1;exitY=0.25;exitDx=0;exitDy=0;" edge="1" parent="1" source="39" target="44">
                    <mxGeometry width="50" height="50" relative="1" as="geometry">
                        <mxPoint x="870" y="410" as="sourcePoint"/>
                        <mxPoint x="940" y="400" as="targetPoint"/>
                    </mxGeometry>
                </mxCell>
                <mxCell id="124" style="edgeStyle=orthogonalEdgeStyle;shape=link;curved=1;html=1;entryX=0.5;entryY=1;entryDx=0;entryDy=0;" edge="1" parent="1" source="65" target="39">
                    <mxGeometry relative="1" as="geometry">
                        <Array as="points">
                            <mxPoint x="845" y="470"/>
                            <mxPoint x="840" y="470"/>
                        </Array>
                    </mxGeometry>
                </mxCell>
                <mxCell id="65" value="ofrece" style="rhombus;whiteSpace=wrap;html=1;" vertex="1" parent="1">
                    <mxGeometry x="780" y="700" width="130" height="80" as="geometry"/>
                </mxCell>
                <mxCell id="73" value="1:N" style="text;html=1;strokeColor=none;fillColor=none;align=center;verticalAlign=middle;whiteSpace=wrap;rounded=0;" vertex="1" parent="1">
                    <mxGeometry x="780" y="680" width="60" height="30" as="geometry"/>
                </mxCell>
                <mxCell id="76" value="enseÃ±a" style="rhombus;whiteSpace=wrap;html=1;" vertex="1" parent="1">
                    <mxGeometry x="550" y="90" width="150" height="80" as="geometry"/>
                </mxCell>
                <mxCell id="78" value="1:N" style="text;html=1;align=center;verticalAlign=middle;resizable=0;points=[];autosize=1;strokeColor=none;fillColor=none;" vertex="1" parent="1">
                    <mxGeometry x="610" y="70" width="30" height="20" as="geometry"/>
                </mxCell>
                <mxCell id="81" value="participante" style="rounded=0;whiteSpace=wrap;html=1;" vertex="1" parent="1">
                    <mxGeometry x="1220" y="720" width="120" height="60" as="geometry"/>
                </mxCell>
                <mxCell id="82" value="&lt;u&gt;participante_id&lt;/u&gt;" style="ellipse;whiteSpace=wrap;html=1;" vertex="1" parent="1">
                    <mxGeometry x="1170" y="620" width="120" height="70" as="geometry"/>
                </mxCell>
                <mxCell id="83" value="cliente" style="ellipse;whiteSpace=wrap;html=1;" vertex="1" parent="1">
                    <mxGeometry x="1330" y="630" width="120" height="60" as="geometry"/>
                </mxCell>
                <mxCell id="84" value="telefono" style="ellipse;whiteSpace=wrap;html=1;" vertex="1" parent="1">
                    <mxGeometry x="1410" y="700" width="120" height="60" as="geometry"/>
                </mxCell>
                <mxCell id="85" value="apelidos" style="ellipse;whiteSpace=wrap;html=1;" vertex="1" parent="1">
                    <mxGeometry x="1350" y="840" width="130" height="50" as="geometry"/>
                </mxCell>
                <mxCell id="86" value="nome" style="ellipse;whiteSpace=wrap;html=1;" vertex="1" parent="1">
                    <mxGeometry x="1249" y="860" width="101" height="60" as="geometry"/>
                </mxCell>
                <mxCell id="90" value="" style="endArrow=none;html=1;exitX=0.579;exitY=0;exitDx=0;exitDy=0;exitPerimeter=0;" edge="1" parent="1" source="86">
                    <mxGeometry width="50" height="50" relative="1" as="geometry">
                        <mxPoint x="1300" y="780" as="sourcePoint"/>
                        <mxPoint x="1300" y="800" as="targetPoint"/>
                    </mxGeometry>
                </mxCell>
                <mxCell id="91" value="" style="endArrow=none;html=1;entryX=0.667;entryY=1;entryDx=0;entryDy=0;entryPerimeter=0;exitX=0.433;exitY=-0.05;exitDx=0;exitDy=0;exitPerimeter=0;" edge="1" parent="1" source="81" target="82">
                    <mxGeometry width="50" height="50" relative="1" as="geometry">
                        <mxPoint x="1270" y="710" as="sourcePoint"/>
                        <mxPoint x="1350" y="730" as="targetPoint"/>
                    </mxGeometry>
                </mxCell>
                <mxCell id="92" value="" style="endArrow=none;html=1;entryX=0;entryY=1;entryDx=0;entryDy=0;exitX=0.917;exitY=0;exitDx=0;exitDy=0;exitPerimeter=0;" edge="1" parent="1" source="81" target="83">
                    <mxGeometry width="50" height="50" relative="1" as="geometry">
                        <mxPoint x="1330" y="710" as="sourcePoint"/>
                        <mxPoint x="1350" y="730" as="targetPoint"/>
                    </mxGeometry>
                </mxCell>
                <mxCell id="93" value="" style="endArrow=none;html=1;exitX=1;exitY=0.25;exitDx=0;exitDy=0;" edge="1" parent="1" source="81">
                    <mxGeometry width="50" height="50" relative="1" as="geometry">
                        <mxPoint x="1350" y="750" as="sourcePoint"/>
                        <mxPoint x="1410" y="735" as="targetPoint"/>
                    </mxGeometry>
                </mxCell>
                <mxCell id="95" value="" style="endArrow=none;html=1;exitX=0.308;exitY=0;exitDx=0;exitDy=0;exitPerimeter=0;entryX=1;entryY=0.75;entryDx=0;entryDy=0;" edge="1" parent="1" source="85" target="81">
                    <mxGeometry width="50" height="50" relative="1" as="geometry">
                        <mxPoint x="1300" y="780" as="sourcePoint"/>
                        <mxPoint x="1350" y="730" as="targetPoint"/>
                    </mxGeometry>
                </mxCell>
                <mxCell id="120" style="edgeStyle=elbowEdgeStyle;shape=link;html=1;entryX=0;entryY=0.75;entryDx=0;entryDy=0;" edge="1" parent="1" source="99" target="81">
                    <mxGeometry relative="1" as="geometry"/>
                </mxCell>
                <mxCell id="129" style="edgeStyle=orthogonalEdgeStyle;shape=link;curved=1;html=1;entryX=0.75;entryY=1;entryDx=0;entryDy=0;" edge="1" parent="1" source="99" target="39">
                    <mxGeometry relative="1" as="geometry">
                        <Array as="points">
                            <mxPoint x="920" y="895"/>
                            <mxPoint x="920" y="480"/>
                            <mxPoint x="870" y="480"/>
                        </Array>
                    </mxGeometry>
                </mxCell>
                <mxCell id="99" value="recibe" style="rhombus;whiteSpace=wrap;html=1;" vertex="1" parent="1">
                    <mxGeometry x="1030" y="855" width="80" height="80" as="geometry"/>
                </mxCell>
                <mxCell id="103" value="M:N" style="text;html=1;align=center;verticalAlign=middle;resizable=0;points=[];autosize=1;strokeColor=none;fillColor=none;" vertex="1" parent="1">
                    <mxGeometry x="1090" y="840" width="40" height="20" as="geometry"/>
                </mxCell>
                <mxCell id="123" style="edgeStyle=orthogonalEdgeStyle;shape=link;curved=1;html=1;" edge="1" parent="1" source="106" target="81">
                    <mxGeometry relative="1" as="geometry">
                        <mxPoint x="1240" y="790" as="targetPoint"/>
                        <Array as="points">
                            <mxPoint x="1240" y="1050"/>
                        </Array>
                    </mxGeometry>
                </mxCell>
                <mxCell id="106" value="trabaja para" style="rhombus;whiteSpace=wrap;html=1;" vertex="1" parent="1">
                    <mxGeometry x="1040" y="1010" width="80" height="80" as="geometry"/>
                </mxCell>
                <mxCell id="107" value="1:M" style="text;html=1;align=center;verticalAlign=middle;resizable=0;points=[];autosize=1;strokeColor=none;fillColor=none;" vertex="1" parent="1">
                    <mxGeometry x="1090" y="1010" width="40" height="20" as="geometry"/>
                </mxCell>
                <mxCell id="125" value="" style="endArrow=none;html=1;curved=1;" edge="1" parent="1" target="76">
                    <mxGeometry width="50" height="50" relative="1" as="geometry">
                        <mxPoint x="340" y="230" as="sourcePoint"/>
                        <mxPoint x="390" y="180" as="targetPoint"/>
                    </mxGeometry>
                </mxCell>
            </root>
        </mxGraphModel>
    </diagram>
</mxfile>